<mxfile host="app.diagrams.net" agent="Mozilla/5.0 (Windows NT 10.0; Win64; x64) AppleWebKit/537.36 (KHTML, like Gecko) Chrome/129.0.0.0 Safari/537.36" version="24.7.17">
  <diagram name="Architecture Diagram" id="w1tjhy3CBnBMz135f7Nt">
    <mxGraphModel dx="1050" dy="1726" grid="1" gridSize="10" guides="1" tooltips="1" connect="1" arrows="1" fold="1" page="1" pageScale="1" pageWidth="827" pageHeight="1169" math="0" shadow="0">
      <root>
        <mxCell id="0" />
        <mxCell id="1" parent="0" />
        <mxCell id="-kuVojUvmgBwoXAbDv_y-1" value="Lambda (Authorization)" style="shape=mxgraph.aws4.lambda_function;fillColor=#FF9900;strokeColor=#232F3E;" vertex="1" parent="1">
          <mxGeometry x="150" y="100" width="100" height="60" as="geometry" />
        </mxCell>
        <mxCell id="-kuVojUvmgBwoXAbDv_y-25" style="edgeStyle=orthogonalEdgeStyle;rounded=0;orthogonalLoop=1;jettySize=auto;html=1;entryX=0;entryY=0.5;entryDx=0;entryDy=0;" edge="1" parent="1" source="-kuVojUvmgBwoXAbDv_y-8" target="-kuVojUvmgBwoXAbDv_y-24">
          <mxGeometry relative="1" as="geometry" />
        </mxCell>
        <mxCell id="-kuVojUvmgBwoXAbDv_y-8" value="API Gateway" style="shape=mxgraph.aws4.api_gateway;fillColor=#FF9900;strokeColor=#232F3E;" vertex="1" parent="1">
          <mxGeometry x="350" y="222.5" width="100" height="60" as="geometry" />
        </mxCell>
        <mxCell id="-kuVojUvmgBwoXAbDv_y-10" value="" style="edgeStyle=orthogonalEdgeStyle;strokeColor=#000000;strokeWidth=2;" edge="1" parent="1" source="-kuVojUvmgBwoXAbDv_y-1" target="-kuVojUvmgBwoXAbDv_y-14">
          <mxGeometry relative="1" as="geometry">
            <mxPoint x="300" y="130" as="targetPoint" />
          </mxGeometry>
        </mxCell>
        <mxCell id="-kuVojUvmgBwoXAbDv_y-11" value="" style="edgeStyle=orthogonalEdgeStyle;strokeColor=#000000;strokeWidth=2;" edge="1" parent="1" source="-kuVojUvmgBwoXAbDv_y-14" target="-kuVojUvmgBwoXAbDv_y-16">
          <mxGeometry relative="1" as="geometry">
            <mxPoint x="400" y="130" as="sourcePoint" />
            <mxPoint x="450" y="130" as="targetPoint" />
          </mxGeometry>
        </mxCell>
        <mxCell id="-kuVojUvmgBwoXAbDv_y-12" value="" style="edgeStyle=orthogonalEdgeStyle;strokeColor=#000000;strokeWidth=2;entryX=1;entryY=0.5;entryDx=0;entryDy=0;entryPerimeter=0;" edge="1" parent="1" source="-kuVojUvmgBwoXAbDv_y-8" target="-kuVojUvmgBwoXAbDv_y-20">
          <mxGeometry relative="1" as="geometry">
            <mxPoint x="250" y="252.5" as="targetPoint" />
          </mxGeometry>
        </mxCell>
        <mxCell id="-kuVojUvmgBwoXAbDv_y-14" value="Amazon Cloudfront" style="sketch=0;outlineConnect=0;fontColor=#232F3E;gradientColor=none;strokeColor=#ffffff;fillColor=#232F3E;dashed=0;verticalLabelPosition=middle;verticalAlign=bottom;align=center;html=1;whiteSpace=wrap;fontSize=10;fontStyle=1;spacing=3;shape=mxgraph.aws4.productIcon;prIcon=mxgraph.aws4.cloudfront;" vertex="1" parent="1">
          <mxGeometry x="310" y="75" width="80" height="110" as="geometry" />
        </mxCell>
        <mxCell id="-kuVojUvmgBwoXAbDv_y-16" value="s" style="sketch=0;outlineConnect=0;fontColor=#232F3E;gradientColor=none;fillColor=#7AA116;strokeColor=none;dashed=0;verticalLabelPosition=bottom;verticalAlign=top;align=center;html=1;fontSize=12;fontStyle=0;aspect=fixed;pointerEvents=1;shape=mxgraph.aws4.bucket;" vertex="1" parent="1">
          <mxGeometry x="460" y="91" width="75" height="78" as="geometry" />
        </mxCell>
        <mxCell id="-kuVojUvmgBwoXAbDv_y-32" style="edgeStyle=orthogonalEdgeStyle;rounded=0;orthogonalLoop=1;jettySize=auto;html=1;exitX=0.5;exitY=1;exitDx=0;exitDy=0;" edge="1" parent="1" source="-kuVojUvmgBwoXAbDv_y-18" target="-kuVojUvmgBwoXAbDv_y-24">
          <mxGeometry relative="1" as="geometry" />
        </mxCell>
        <mxCell id="-kuVojUvmgBwoXAbDv_y-18" value="" style="shape=image;verticalLabelPosition=bottom;labelBackgroundColor=default;verticalAlign=top;aspect=fixed;imageAspect=0;image=https://www.patrickdap.com/img/argocd/argo_huabd22e1bcdfe3e5788ebf809af826600_43942_250x0_resize_q85_box_3.png;" vertex="1" parent="1">
          <mxGeometry x="573.3199999999999" y="-1" width="108.36" height="140" as="geometry" />
        </mxCell>
        <mxCell id="-kuVojUvmgBwoXAbDv_y-20" value="" style="outlineConnect=0;dashed=0;verticalLabelPosition=bottom;verticalAlign=top;align=center;html=1;shape=mxgraph.aws3.dynamo_db;fillColor=#2E73B8;gradientColor=none;" vertex="1" parent="1">
          <mxGeometry x="150" y="212" width="72" height="81" as="geometry" />
        </mxCell>
        <mxCell id="-kuVojUvmgBwoXAbDv_y-33" style="edgeStyle=orthogonalEdgeStyle;rounded=0;orthogonalLoop=1;jettySize=auto;html=1;" edge="1" parent="1" source="-kuVojUvmgBwoXAbDv_y-22" target="-kuVojUvmgBwoXAbDv_y-24">
          <mxGeometry relative="1" as="geometry" />
        </mxCell>
        <mxCell id="-kuVojUvmgBwoXAbDv_y-22" value="" style="shape=image;verticalLabelPosition=bottom;labelBackgroundColor=default;verticalAlign=top;aspect=fixed;imageAspect=0;image=https://miro.medium.com/v2/resize:fit:900/1*TY9uBBO9leUbRtlXmQBiug.png;" vertex="1" parent="1">
          <mxGeometry x="562.5" y="350" width="130" height="130" as="geometry" />
        </mxCell>
        <mxCell id="-kuVojUvmgBwoXAbDv_y-30" style="edgeStyle=orthogonalEdgeStyle;rounded=0;orthogonalLoop=1;jettySize=auto;html=1;" edge="1" parent="1" source="-kuVojUvmgBwoXAbDv_y-24" target="-kuVojUvmgBwoXAbDv_y-29">
          <mxGeometry relative="1" as="geometry" />
        </mxCell>
        <mxCell id="-kuVojUvmgBwoXAbDv_y-24" value="" style="shape=image;verticalLabelPosition=bottom;labelBackgroundColor=default;verticalAlign=top;aspect=fixed;imageAspect=0;image=https://miro.medium.com/v2/resize:fit:626/0*1kaWDHkvFr2kw_jQ.png;" vertex="1" parent="1">
          <mxGeometry x="560" y="185" width="135" height="135" as="geometry" />
        </mxCell>
        <mxCell id="-kuVojUvmgBwoXAbDv_y-29" value="" style="shape=image;verticalLabelPosition=bottom;labelBackgroundColor=default;verticalAlign=top;aspect=fixed;imageAspect=0;image=https://quintagroup.com/cms/js/js-image/javascript-logo.png;" vertex="1" parent="1">
          <mxGeometry x="740" y="185" width="135" height="135" as="geometry" />
        </mxCell>
        <mxCell id="-kuVojUvmgBwoXAbDv_y-31" value="S3&lt;div&gt;&lt;br&gt;&lt;/div&gt;" style="text;html=1;align=center;verticalAlign=middle;whiteSpace=wrap;rounded=0;" vertex="1" parent="1">
          <mxGeometry x="467.5" y="139" width="60" height="30" as="geometry" />
        </mxCell>
      </root>
    </mxGraphModel>
  </diagram>
</mxfile>
